<?xml version="1.0" encoding="UTF-8"?>
<svg id="Layer_1" data-name="Layer 1" xmlns="http://www.w3.org/2000/svg" viewBox="0 0 1080 1080">
  <g>
    <path class="cls-1" fill='#040921' stroke-width="" d="M434.22,604.45v-8.74h-46.49v58.33h10.95v-25.38h34.74v-8.83h-34.74v-15.38h35.54Z"/>
    <path class="cls-1" fill='#040921' d="M478.57,595.71h-11.84l-23.68,58.33h11.58l18.02-43.93,17.94,43.93h11.68l-23.7-58.33Z"/>
    <path class="cls-1" fill='#040921' d="M547.95,619.21c3.01-2.22,4.77-5.31,4.77-9.64,0-10.42-9.01-13.86-18.47-13.86h-16.87v58.33h21.65c13.26,0,23.34-6.28,23.34-18.47,0-9.9-5.92-14.67-14.41-16.35ZM528.25,603.83h6c5.05,0,8.22,2.3,8.22,7.34,0,4.24-3.17,6.8-8.48,6.8h-5.74v-14.14ZM537.61,645.9h-9.37v-21.84h9.37c8.66,0,13.78,3.36,13.78,11.5,0,7.42-5.57,10.34-13.78,10.34Z"/>
    <path class="cls-1" fill='#040921' d="M589.4,645.29v-16.63h34.73v-8.83h-34.73v-15.38h35.62v-8.74h-46.57v58.33h47.36v-8.75h-36.41Z"/>
    <path class="cls-1" fill='#040921' d="M672.99,623.89c4.87-2.2,8.23-6.26,8.23-12.89,0-11.14-9.82-15.29-19.8-15.29h-19.09v58.33h10.95v-27.58h8.93l17.68,27.58h12.37l-19.28-30.15ZM661.33,618.42h-8.04v-14.59h8.14c5.74,0,8.93,2.22,8.93,7.34s-3.1,7.25-9.02,7.25Z"/>
  </g>
  <g>
    <polygon class="cls-2" fill='#1e48ff' points="601.18 425.96 479.06 425.96 478.82 444.55 600.93 444.55 601.18 425.96"/>
    <path class="cls-2" fill='#1e48ff' d="M582.36,463.74c-2.24,52.88-36.6,78.31-42.24,82.77-2.92-2.31-5.69-4.69-8.31-7.11-17.61-16.33-27.63-35.21-31.66-57.07h58.93c1.41-6.01,2.37-12.21,2.91-18.59h-82.93c.52,34.02,13,63.53,38.75,88.01,2.42,2.31,4.96,4.56,7.62,6.78,4.54,3.79,9.44,7.45,14.68,10.97,40.91-27.48,60.41-63.06,61.06-105.76h-18.82Z"/>
  </g>
</svg>
