<svg width="124" height="145" viewBox="0 0 124 145" fill="none" xmlns="http://www.w3.org/2000/svg">
<path d="M123.18 0.959991H1.06L0.820007 19.55H122.93L123.18 0.959991Z" fill="#1E48FF"/>
<path d="M104.36 38.74C102.12 91.62 67.76 117.05 62.12 121.51C59.2 119.2 56.43 116.82 53.81 114.4C36.2 98.07 26.18 79.19 22.15 57.33H81.08C82.49 51.32 83.45 45.12 83.99 38.74H1.06C1.58 72.76 14.06 102.27 39.81 126.75C42.23 129.06 44.77 131.31 47.43 133.53C51.97 137.32 56.87 140.98 62.11 144.5C103.02 117.02 122.52 81.44 123.17 38.74H104.35H104.36Z" fill="#1E48FF"/>
</svg>
