<svg width="306" height="230" viewBox="0 0 306 230" fill="none" xmlns="http://www.w3.org/2000/svg">
<path d="M47.22 179.45V170.71H0.730011V229.04H11.68V203.66H46.42V194.83H11.68V179.45H47.22Z" fill="#040921"/>
<path d="M91.57 170.71H79.73L56.05 229.04H67.63L85.65 185.11L103.59 229.04H115.27L91.57 170.71Z" fill="#040921"/>
<path d="M160.95 194.21C163.96 191.99 165.72 188.9 165.72 184.57C165.72 174.15 156.71 170.71 147.25 170.71H130.38V229.04H152.03C165.29 229.04 175.37 222.76 175.37 210.57C175.37 200.67 169.45 195.9 160.96 194.22L160.95 194.21ZM141.25 178.83H147.25C152.3 178.83 155.47 181.13 155.47 186.17C155.47 190.41 152.3 192.97 146.99 192.97H141.25V178.83ZM150.61 220.9H141.24V199.06H150.61C159.27 199.06 164.39 202.42 164.39 210.56C164.39 217.98 158.82 220.9 150.61 220.9Z" fill="#040921"/>
<path d="M202.4 220.29V203.66H237.13V194.83H202.4V179.45H238.02V170.71H191.45V229.04H238.81V220.29H202.4Z" fill="#040921"/>
<path d="M285.99 198.89C290.86 196.69 294.22 192.63 294.22 186C294.22 174.86 284.4 170.71 274.42 170.71H255.33V229.04H266.28V201.46H275.21L292.89 229.04H305.26L285.98 198.89H285.99ZM274.33 193.42H266.29V178.83H274.43C280.17 178.83 283.36 181.05 283.36 186.17C283.36 191.29 280.26 193.42 274.34 193.42H274.33Z" fill="#040921"/>
<path d="M214.18 0.959991H92.06L91.82 19.55H213.93L214.18 0.959991Z" fill="#1E48FF"/>
<path d="M195.36 38.74C193.12 91.62 158.76 117.05 153.12 121.51C150.2 119.2 147.43 116.82 144.81 114.4C127.2 98.07 117.18 79.19 113.15 57.33H172.08C173.49 51.32 174.45 45.12 174.99 38.74H92.06C92.58 72.76 105.06 102.27 130.81 126.75C133.23 129.06 135.77 131.31 138.43 133.53C142.97 137.32 147.87 140.98 153.11 144.5C194.02 117.02 213.52 81.44 214.17 38.74H195.35H195.36Z" fill="#1E48FF"/>
</svg>
