<?xml version="1.0" encoding="UTF-8"?>
<svg id="Layer_1" data-name="Layer 1" xmlns="http://www.w3.org/2000/svg" viewBox="0 0 1080 1080">
  <defs>
    <style>
      .cls-1 {
        fill: #040921;
      }

      .cls-1, .cls-2 {
        stroke-width: 0px;
      }

      .cls-2 {
        fill: #1e48ff;
      }
    </style>
  </defs>
  <g>
    <polygon class="cls-2" points="601.18 425.96 479.06 425.96 478.82 444.55 600.93 444.55 601.18 425.96"/>
    <path class="cls-2" d="M582.36,463.74c-2.24,52.88-36.6,78.31-42.24,82.77-2.92-2.31-5.69-4.69-8.31-7.11-17.61-16.33-27.63-35.21-31.66-57.07h58.93c1.41-6.01,2.37-12.21,2.91-18.59h-82.93c.52,34.02,13,63.53,38.75,88.01,2.42,2.31,4.96,4.56,7.62,6.78,4.54,3.79,9.44,7.45,14.68,10.97,40.91-27.48,60.41-63.06,61.06-105.76h-18.82Z"/>
  </g>
</svg>
